<?xml version="1.0" encoding="UTF-8" standalone="no"?>
<!-- Created with Inkscape (http://www.inkscape.org/) -->

<svg
   width="100pt"
   height="100pt"
   viewBox="0 0 35.277777 35.277778"
   version="1.1"
   id="svg5"
   inkscape:version="1.1.2 (0a00cf5339, 2022-02-04)"
   sodipodi:docname="bg.svg"
   xmlns:inkscape="http://www.inkscape.org/namespaces/inkscape"
   xmlns:sodipodi="http://sodipodi.sourceforge.net/DTD/sodipodi-0.dtd"
   xmlns="http://www.w3.org/2000/svg"
   xmlns:svg="http://www.w3.org/2000/svg">
  <sodipodi:namedview
     id="namedview7"
     pagecolor="#797979"
     bordercolor="#000000"
     borderopacity="1"
     inkscape:pageshadow="2"
     inkscape:pageopacity="0"
     inkscape:pagecheckerboard="true"
     inkscape:document-units="pt"
     showgrid="false"
     showguides="false"
     units="pt"
     width="283.46457pt"
     inkscape:showpageshadow="false"
     inkscape:zoom="8.7988368"
     inkscape:cx="66.145107"
     inkscape:cy="67.111143"
     inkscape:window-width="1920"
     inkscape:window-height="1016"
     inkscape:window-x="0"
     inkscape:window-y="27"
     inkscape:window-maximized="1"
     inkscape:current-layer="layer1"
     inkscape:snap-global="false" />
  <defs
     id="defs2" />
  <g
     inkscape:label="Layer 1"
     inkscape:groupmode="layer"
     id="layer1">
    <path
       style="fill:none;stroke:#111111;stroke-width:1.41111;stroke-linecap:round;stroke-linejoin:round;stroke-miterlimit:4;stroke-dasharray:none;stroke-opacity:1"
       d="M 7.6647336,23.901901 C 7.9547624,23.271903 5.7022968,22.142557 6.2753043,21.478272 5.0439344,20.232201 4.9396466,16.775888 6.7304182,16.853668 6.0525654,15.75017 5.4922849,14.22481 5.9804479,12.804907 6.2650545,11.861643 6.9207677,10.646646 7.7925366,10.308237 7.797918,7.2796852 10.919537,6.8596129 12.347699,7.6484994 c -1.431071,-0.9460695 0.887426,-1.785928 2.472502,-0.9729572 1.296509,-1.2469569 4.065411,-0.4774241 4.732291,0.2644977 3.421696,-1.262062 5.793489,0.3855301 5.573406,1.9905587 0.735475,-1.2983372 4.478406,0.708478 4.243569,1.7911164 2.067524,1.056069 0.913126,4.751065 0.206672,6.326994"
       id="path1298"
       sodipodi:nodetypes="ccccccccccc" />
    <path
       style="fill:#111111;fill-opacity:1;stroke-width:0.0334574"
       d="m 16.563257,29.916762 c -0.539161,-0.44054 -0.687326,-1.231829 -1.058987,-1.818482 -1.10956,-2.078693 -2.598104,-3.93316 -3.688112,-6.022971 -0.481955,-0.855153 -0.175117,-2.070796 0.786478,-2.428609 0.968328,-0.412814 1.923671,0.242515 2.453652,1.028971 0.229165,0.262267 0.45749,0.525267 0.686266,0.787874 0.01117,-2.411841 0.02235,-4.823683 0.03352,-7.235524 0.234854,-0.997321 1.385414,-1.689622 2.357149,-1.253807 0.791939,0.294475 1.17404,1.169507 1.071052,1.972436 0.0023,0.991982 6e-4,2.733382 0.0011,3.725367 0.114721,-0.852439 1.982046,-0.787577 2.155689,0.501986 0.119351,-1.259583 1.983972,-1.114062 2.116172,0.140439 0.339481,-1.341469 2.116237,-1.430969 2.536469,0.129953 0.150651,0.646085 0.03564,1.221323 0.08282,2.061569 0.470012,7.464728 -6.075007,8.261997 -9.471639,8.425516 l -0.06166,-0.01477 z m 8.346286,-6.055034 c 0.0046,-1.392221 -0.03131,-2.153348 -0.03131,-3.359346 0,-1.205998 -0.931824,-1.394394 -0.931824,-0.0508 0,1.343594 -0.994852,1.421136 -0.994852,0.08567 0,-1.335466 -1.215917,-1.161426 -1.215917,0.0089 0,1.170284 -1.027859,1.201018 -1.027859,-0.05681 0,-1.257832 -1.417086,-1.503591 -1.417086,-0.09247 0,1.41112 -1.218783,1.179711 -1.222337,-0.03061 -0.0036,-1.210325 0.01565,-4.397915 -0.03255,-5.901386 -0.126655,-0.733873 -1.237372,-0.440664 -1.105514,0.215619 -0.01234,2.822979 0.03032,5.647216 -0.0296,8.469221 -0.528061,1.150688 -1.444839,-0.255617 -1.884603,-0.751424 -0.543573,-0.552094 -0.982376,-1.261801 -1.621661,-1.687842 -1.138344,-0.05422 -0.391763,1.272025 -0.02816,1.745158 1.253916,2.101182 2.765565,4.056117 3.762956,6.302651 3.722643,0.236071 7.494496,-2.456183 7.780317,-4.896476 z"
       id="path15073"
       sodipodi:nodetypes="csssssscsccccccccszzzzzzzcssscsccs" />
  </g>
</svg>
